<svg xmlns="http://www.w3.org/2000/svg" viewBox="0 0 140 140" height="140" width="140"><defs><style>path{fill:#fabd14}</style></defs><rect width="100%" height="100%" fill="#144c94"/>
	<path d="M10.68 129.62h4.632c2.707 0 2.855-2.5 2.855-3.395v-2.148c0-3.333-1.996-3.477-3.094-3.477h-4.396zm1.028-.904V121.5h3.537c1.72 0 1.897 1.676 1.897 2.178v2.37c-.024 1.61-.263 2.668-2.07 2.668h-3.368"></path>
	<path d="M21.022 123.306h-.948v6.313h.948zm0-2.706h-.948v1.047h.948V120.6"></path>
	<path d="M25.523 128.917c-1.097 0-1.59-.053-1.59-1.258 0-1.03.454-1.097 1.59-1.097 1.205 0 1.906-.01 1.906 1.176 0 1.15-.96 1.173-1.908 1.173zm2.884.702v-4.31c.01-1.92-1.156-2.09-2.746-2.082-1.4-.005-2.52.104-2.52 1.724v.138h.987v-.225c-.012-.865.91-.865 1.648-.865 1.072 0 1.69.107 1.69 1.264v1.166h-.06c-.135-.58-1.364-.64-1.988-.64-1.567 0-2.47.247-2.47 1.984 0 1.65.988 1.916 2.41 1.916.79 0 1.72-.026 2.075-.75l.03.03v.647h.95"></path>
	<path d="M33.054 128.917c-1.837 0-1.73-.934-1.73-2.445 0-1.66-.018-2.47 1.73-2.47 1.707 0 1.83.71 1.83 2.47 0 1.402 0 2.445-1.83 2.445zm2.78-5.61h-.948v.796l-.024.006c-.37-.757-1.158-.88-2.03-.88-2.168 0-2.494 1.136-2.494 3.244 0 2.16.448 3.22 2.493 3.22.743 0 1.77-.086 2.033-.85h.02v1.45c-.006 1.244-.692 1.36-1.828 1.36-.994 0-1.572-.07-1.572-1.29h-.95c-.094 1.83 1.056 2.06 2.522 2.06 1.53 0 2.78-.368 2.78-2.06v-7.053"></path>
	<path d="M38.912 123.306h-.948v6.313h.948v-3.683c0-1.45.34-1.936 1.89-1.936 1.068 0 1.515.19 1.515 1.35v4.268h.948v-4.2c.024-1.758-.755-2.193-2.377-2.193-.725 0-1.652.087-1.952.85h-.024v-.77"></path>
	<path d="M45.25 126.472c0 2.653.453 3.22 2.8 3.22s2.802-.567 2.802-3.22c0-2.672-.455-3.24-2.802-3.24-2.345 0-2.8.568-2.8 3.24zm.986 0c0-2.2.12-2.47 1.814-2.47 1.69 0 1.814.27 1.814 2.47 0 2.183-.123 2.445-1.814 2.445-1.7 0-1.814-.262-1.814-2.445"></path>
	<path d="M57.814 124.71c0-1.427-1.36-1.483-2.47-1.483-1.706 0-2.756.04-2.756 1.87 0 1.79 1.39 1.643 2.757 1.744 1.157.067 1.65-.15 1.65 1.033 0 1.12-1.002.972-1.65.972-1.443 0-1.814-.132-1.814-.73v-.495h-.986v.584c0 1.413 1.434 1.482 2.802 1.482 1.412 0 2.63-.07 2.63-1.85 0-2.056-1.473-1.8-3.1-1.898-.983-.047-1.3.04-1.3-1.098 0-.78.58-.763 1.77-.763 1.003 0 1.48 0 1.48.632v.24h.99v-.236"></path>
	<path d="M63.125 123.306h-2.44v-1.527h-.958v1.525h-.84v.77h.84v3.715c0 1.483.34 1.898 1.82 1.898 1.3 0 1.815-.585 1.815-1.837v-.467h-.903v.47c0 .607 0 1.067-.89 1.067-.69 0-.878-.153-.886-.84v-4.003h2.438v-.77"></path>
	<path d="M65.648 123.306H64.7v6.313h.948zm0-2.706H64.7v1.047h.948V120.6"></path>
	<path d="M72.1 127.337v.306c0 1.146-.436 1.274-1.62 1.274-1.854 0-1.924-.54-1.924-2.315 0-2.02.028-2.6 1.72-2.6 1.086 0 1.712.02 1.712 1.166v.19h.95v-.165c0-1.798-1.197-1.968-2.728-1.968-2.282 0-2.647 1.05-2.647 3.102 0 2.35.177 3.36 2.805 3.36 1.502 0 2.677-.224 2.677-2.006v-.346h-.948"></path>
	<path d="M82.464 125.46c1.644.13 2.416-.154 2.416 1.56 0 1.767-.522 1.767-2.45 1.767-1.906 0-2.292 0-2.272-1.984H79.13c-.18 2.608 1.008 2.885 3.3 2.885 2.272 0 3.477-.083 3.477-2.628 0-2.442-1.086-2.386-3.22-2.503-1.685-.045-2.503.093-2.503-1.628 0-1.257.276-1.504 2.276-1.504 1.906 0 2.21.054 2.252 1.64h1.028c.108-2.458-1.297-2.542-3.25-2.542-2.22 0-3.324.217-3.324 2.623 0 2.38 1.53 2.164 3.304 2.312"></path>
	<path d="M92.103 123.306h-.98l-1.416 5.61h-.02l-1.956-5.61h-.97l2.286 6.313h.34c-.218.717-.326 2.045-1.314 2.045a1.575 1.575 0 0 1-.34-.04v.737c.133.024.278.06.436.06 1.52 0 1.798-1.162 2.128-2.36l1.81-6.757"></path>
	<path d="M98.392 124.71c0-1.427-1.357-1.483-2.47-1.483-1.703 0-2.746.04-2.746 1.87 0 1.79 1.383 1.643 2.747 1.744 1.16.067 1.653-.15 1.653 1.033 0 1.12-.996.972-1.652.972-1.432 0-1.81-.132-1.81-.73v-.495h-.987v.584c0 1.413 1.434 1.482 2.8 1.482 1.416 0 2.643-.07 2.643-1.85 0-2.056-1.482-1.8-3.102-1.898-.988-.047-1.304.04-1.304-1.098 0-.78.573-.763 1.764-.763 1.008 0 1.482 0 1.482.632v.24h.988v-.236"></path>
	<path d="M103.703 123.306h-2.438v-1.527h-.948v1.525h-.842v.77h.84v3.715c0 1.483.34 1.898 1.813 1.898 1.304 0 1.818-.585 1.818-1.837v-.467h-.903v.47c0 .607 0 1.067-.89 1.067-.69 0-.868-.153-.884-.84v-4.003h2.436v-.77"></path>
	<path d="M109.646 127.706v.237c0 .897-.425.974-1.72.974-1.706 0-1.852-.246-1.852-2.246h4.544v-.63c0-2.34-.648-2.81-2.693-2.81-2.262 0-2.84.623-2.84 3.246 0 2.4.37 3.22 2.84 3.22 1.403 0 2.693-.086 2.693-1.754v-.23zm-3.576-1.805c.073-1.45.134-1.895 1.857-1.895 1.442 0 1.66.105 1.703 1.897h-3.556"></path>
	<path d="M113.513 123.306h-.95v6.313h.95v-3.796c0-1.292.648-1.823 1.896-1.823 1.373 0 1.373.54 1.413 1.384v4.234h.948v-3.874c0-1.36.574-1.744 1.918-1.744 1.224 0 1.382.486 1.382 1.55v4.067h.958v-4.16c0-1.567-.573-2.233-2.193-2.233-.856 0-1.83.212-2.244 1.05-.227-.832-1.2-1.046-1.955-1.046-.803 0-1.767.23-2.095 1.048h-.035v-.972"></path>
	<path d="M129.155 124.71c0-1.427-1.356-1.483-2.46-1.483-1.705 0-2.756.04-2.756 1.87 0 1.79 1.38 1.643 2.754 1.744 1.158.067 1.652-.15 1.652 1.033 0 1.12-1 .972-1.648.972-1.444 0-1.815-.132-1.815-.73v-.495h-.988v.584c0 1.413 1.43 1.482 2.802 1.482 1.402 0 2.63-.07 2.63-1.85 0-2.056-1.473-1.8-3.1-1.898-.99-.047-1.3.04-1.3-1.098 0-.78.58-.763 1.77-.763.996 0 1.483 0 1.483.632v.24h.98v-.236"></path>
	<path d="M14.956 30.36v18.89h9.478c5.15 0 5.848-2.72 5.927-7.528v-5.325c0-1.535-.56-6.036-5.4-6.036z
		m10.227 22.663h-14.47V26.588h13.72c3.514 0 10.176.51 10.176 11.005v4.678c0 2.634-.444 10.75-9.426 10.75"></path>
	<path d="M38 53V34l2 2 2-2v19h-4"></path>
	<path d="M40 30l2 2-2 2-2-2 2-2z"></path>
	<path d="M50.777 49.224c.624.363 1.837.587 4.212.587 2.37 0 3.58-.216 4.206-.58.638-.377.652-1.02.652-1.853 0-.825-.015-1.475-.653-1.845-.626-.362-1.837-.623-4.208-.623-2.378 0-3.59.26-4.215.623-.633.37-.66 1.02-.66 1.846 0 .83.024 1.473.656 1.85zm9.058-9.81c0-1.758-1.58-2-4.607-2-2.53 0-4.677.038-4.653 2.004v.455h-3.983v-.358c0-5.177 4.43-5.704 8.634-5.665 4.84-.04 8.646.603 8.646 5.665v13.522h-4.037v-.79c-1.55.73-2.562 1.02-4.907 1.013-4.89-.023-8.78-.786-8.78-5.888 0-5.097 3.892-5.88 8.784-5.88 1.723 0 3.443.27 4.817.63l.09-2.706"></path>
	<path d="M77.983 53.207c-6.975 0-11.424-.71-11.242-7.672h4.457c.08 2.173.41 2.885.988 3.256.857.56 2.624.59 5.797.59 6.224 0 7.18-.025 7.18-4.253 0-2.262-.553-2.885-1.442-3.195-.54-.184-1.258-.27-2.232-.323-.968-.05-2.083-.1-3.432-.167a170.764 170.764 0 0 1-3.266-.177l-.573-.047-.22-.017c-1.274-.106-2.495-.276-3.544-.677-2.23-.83-3.575-2.826-3.575-6.35 0-7.35 3.922-7.74 10.99-7.74 6.053 0 11.346.166 10.998 7.66h-4.228C84.5 30.52 83.63 30.26 77.96 30.26c-6.362 0-6.698.67-6.698 3.512 0 2.252.778 2.878 1.742 3.255.563.218 1.312.325 2.3.38.995.053 6.23.332 8.04.438 1.443.093 2.48.415 3.44.895 2.05 1.008 2.666 2.984 2.666 6.48 0 7.78-4.307 7.983-11.475 7.983"></path>
	<path d="M98.896 60.553v-11.06L89.254 34.14h4.5l7.264 11.626 7.26-11.623h4.49l-9.648 15.37.016 11.046h-4.244"></path>
	<path d="M105.92 34.14l-4.9 7.845-4.904-7.844h9.8"></path>
	<path d="M116.5 48.17c.008.28.053.522.257.73a1.087 1.087 0 0 0 .322.257c.56.306 1.657.444 3.795.444s3.225-.152 3.798-.444c.332-.166.486-.573.563-.93.07-.355.07-.69.07-.758 0-1.628-.436-1.896-.85-2.06-.293-.107-.795-.154-1.29-.178-1.93-.116-4.05-.17-4.962-.246-.92-.087-1.83-.227-2.624-.534-1.682-.652-2.893-2.035-2.893-4.76 0-5.75 4.623-5.816 8.002-5.816 2.922 0 7.995.056 7.995 4.722v1.126h-3.943v-1.126c0-1.14-.98-1.256-4.05-1.256-1.447 0-2.45 0-3.097.158-.657.158-.968.474-.968 1.106v1.292l.02.316a1.68 1.68 0 0 0 .083.455c.11.316.325.618.782.69.146.02.345.06.563.068l5.024.245c1.164.054 2.13.162 3.007.48 1.86.67 3.126 2.192 3.126 5.278 0 5.603-4.515 5.773-8.39 5.773-3.627 0-8.38-.107-8.38-4.72v-1.284h4.03c0 .21-.01.83.006.968"></path>
</svg>